<?xml version="1.0" encoding="UTF-8"?>
<svg width="215px" height="224px" viewBox="0 0 215 224" version="1.1" xmlns="http://www.w3.org/2000/svg" xmlns:xlink="http://www.w3.org/1999/xlink">
    <!-- Generator: Sketch 48 (47235) - http://www.bohemiancoding.com/sketch -->
    <title>未命名</title>
    <desc>Created with Sketch.</desc>
    <defs></defs>
    <g id="Page-1" stroke="none" stroke-width="1" fill="none" fill-rule="evenodd">
        <g id="logo-full" fill="#FFFFFF" fill-rule="nonzero">
            <path d="M195.333,130.506 C194.887,130.506 194.44,130.506 193.845,130.358 C187.446,129.614 182.832,123.81 183.576,117.411 L190.57,59.52 C191.017,55.799 188.785,52.227 185.362,51.037 L138.186,34.221 C132.083,31.989 128.958,25.441 131.042,19.339 C133.274,13.237 139.822,10.112 145.924,12.195 L193.1,29.011 C207.089,33.922 215.572,47.614 213.787,62.347 L206.792,120.238 C206.197,126.042 201.137,130.506 195.333,130.506 Z" id="Shape"></path>
            <path d="M104.851,223.222 C99.642,223.222 94.434,221.882 89.522,219.203 L28.506,185.272 C19.725,180.361 13.773,171.581 12.582,161.609 L0.23,61.007 C-1.556,46.274 7.225,32.284 21.213,27.373 L96.665,1.627 C102.767,-0.456 109.464,2.817 111.547,8.919 C113.631,15.022 110.357,21.718 104.255,23.802 L28.803,49.547 C25.231,50.738 22.999,54.31 23.446,58.179 L35.798,158.782 C36.096,161.312 37.584,163.544 39.816,164.884 L100.832,198.815 C103.213,200.155 106.19,200.155 108.571,198.815 L174.647,162.652 C176.879,161.462 178.517,159.081 178.814,156.55 C179.558,150.151 185.363,145.537 191.762,146.281 C198.16,147.025 202.774,152.829 202.031,159.228 C200.84,169.199 194.738,178.128 185.958,183.04 L119.882,219.203 C115.268,221.882 110.059,223.222 104.851,223.222 Z" id="Shape"></path>
            <path d="M157.086,132.441 L119.286,64.132 L119.137,63.983 C116.458,59.37 111.399,56.393 106.041,56.393 C100.683,56.393 95.624,59.37 92.945,63.983 L55.145,132.441 C52.317,137.649 54.103,144.048 59.312,146.877 C64.52,149.704 70.92,147.918 73.748,142.71 L81.04,129.465 L131.044,129.465 L138.336,142.71 C140.271,146.281 143.842,148.216 147.712,148.216 C149.497,148.216 151.283,147.77 152.772,146.877 C157.979,144.049 159.914,137.501 157.086,132.441 Z M92.796,108.183 L106.041,84.223 L119.286,108.183 L92.796,108.183 Z" id="Shape"></path>
        </g>
    </g>
</svg>